<svg width="23" height="17" viewBox="0 0 23 17" fill="none" xmlns="http://www.w3.org/2000/svg">
<path d="M10.8655 11.1135L1.24179 1.27014C0.77905 0.79683 1.11439 0 1.77632 0H21.0237C21.6856 0 22.0209 0.79683 21.5582 1.27014L11.9345 11.1135C11.6413 11.4134 11.1587 11.4134 10.8655 11.1135Z" fill="#1F1E4E"/>
<path d="M10.8655 13.0043L1.28206 3.20216C0.813632 2.72304 0 3.05469 0 3.72475V15.3246C0 15.7374 0.334686 16.0721 0.747541 16.0721H22.0525C22.4653 16.0721 22.8 15.7374 22.8 15.3246V3.72475C22.8 3.05469 21.9864 2.72304 21.5179 3.20216L11.9345 13.0043C11.6413 13.3042 11.1587 13.3042 10.8655 13.0043Z" fill="#1F1E4E"/>
</svg>
