<svg width="18" height="18" viewBox="0 0 18 18" fill="none" xmlns="http://www.w3.org/2000/svg">
<path fill-rule="evenodd" clip-rule="evenodd" d="M0 1.50371C0 0.673234 0.67277 0 1.50371 0H16.4963C17.3268 0 18 0.67277 18 1.50371V16.4963C18 17.3268 17.3272 18 16.4963 18H1.50371C0.673234 18 0 17.3272 0 16.4963V1.50371ZM7.125 6.8625H9.5625V8.08725C9.91387 7.383 10.8142 6.75 12.1669 6.75C14.7596 6.75 15.375 8.15175 15.375 10.7239V15.4875H12.75V11.3096C12.75 9.84488 12.3986 9.01875 11.505 9.01875C10.2656 9.01875 9.75 9.90938 9.75 11.3096V15.4875H7.125V6.8625ZM2.625 15.375H5.25V6.75H2.625V15.375ZM5.625 3.9375C5.625 4.86937 4.86937 5.625 3.9375 5.625C3.00563 5.625 2.25 4.86937 2.25 3.9375C2.25 3.00563 3.00563 2.25 3.9375 2.25C4.86937 2.25 5.625 3.00563 5.625 3.9375Z" fill="#1F1E4E"/>
</svg>
