<svg width="22" height="17" viewBox="0 0 22 17" fill="none" xmlns="http://www.w3.org/2000/svg">
<path d="M21.3486 2.30083H20.1706C19.8639 2.30083 19.0613 2.636 19.0613 2.92134V13.2832C19.0613 13.5692 19.8639 13.8037 20.1706 13.8037H21.3486V16.1043H13.7241V13.8037H15.2494V3.06731H14.9839L11.3136 16.1042H8.47195L4.84913 3.06731H4.57474V13.8037H6.09936V16.1042H0V13.8037H0.845942C1.17804 13.8037 1.52466 13.5692 1.52466 13.2831V2.92134C1.52466 2.63596 1.17809 2.30083 0.845942 2.30083H0V7.17855e-08H7.90459L10.4855 9.20233H10.555L13.1614 7.17855e-08H21.3486V2.30083Z" fill="#1F1E4E"/>
</svg>
